# Blender v2.81 (sub 16) OBJ File: 'untitled.blend'
# www.blender.org
mtllib VisCrystal3.mtl
o Cube
v 0.718967 0.471179 0.434537
v 0.811143 0.286827 0.342361
v 0.718967 0.471179 0.434537
v 0.811143 0.286827 0.526713
v 0.718967 0.471179 0.434537
v 0.626791 0.286827 0.342361
v 0.718967 0.471179 0.434537
v 0.626791 0.286827 0.526713
vt 0.625000 0.500000
vt 0.875000 0.750000
vt 0.625000 0.750000
vt 0.375000 0.750000
vt 0.625000 1.000000
vt 0.375000 1.000000
vt 0.375000 0.000000
vt 0.625000 0.250000
vt 0.375000 0.250000
vt 0.375000 0.500000
vt 0.125000 0.750000
vt 0.125000 0.500000
vt 0.875000 0.500000
vt 0.625000 0.000000
vn 0.0000 0.0000 1.0000
vn 0.0000 0.4472 0.8944
vn -0.8944 0.4472 0.0000
vn 0.0000 -1.0000 0.0000
vn 0.8944 0.4472 0.0000
vn 0.0000 0.4472 -0.8944
g Cube_Cube_Material
usemtl Material
s off
f 1/1/1 7/2/1 3/3/1
f 4/4/2 7/5/2 8/6/2
f 8/7/3 5/8/3 6/9/3
f 2/10/4 8/11/4 6/12/4
f 2/10/5 3/3/5 4/4/5
f 6/9/6 1/1/6 2/10/6
f 1/1/1 5/13/1 7/2/1
f 4/4/1 3/3/1 7/5/1
f 8/7/1 7/14/1 5/8/1
f 2/10/4 4/4/4 8/11/4
f 2/10/1 1/1/1 3/3/1
f 6/9/1 5/8/1 1/1/1
o Cube.001
v 0.811143 0.287578 0.342361
v 0.779533 0.011598 0.373971
v 0.811143 0.287578 0.526713
v 0.779533 0.011598 0.495103
v 0.626791 0.287578 0.342361
v 0.658401 0.011598 0.373971
v 0.626791 0.287578 0.526713
v 0.658401 0.011598 0.495103
vt 0.875000 0.500000
vt 0.625000 0.750000
vt 0.625000 0.500000
vt 0.375000 1.000000
vt 0.375000 0.750000
vt 0.625000 0.000000
vt 0.375000 0.250000
vt 0.375000 0.000000
vt 0.375000 0.500000
vt 0.125000 0.750000
vt 0.125000 0.500000
vt 0.625000 0.250000
vt 0.875000 0.750000
vt 0.625000 1.000000
vn 0.0000 1.0000 0.0000
vn 0.0000 -0.1138 0.9935
vn -0.9935 -0.1138 0.0000
vn 0.0000 -1.0000 0.0000
vn 0.9935 -0.1138 0.0000
vn 0.0000 -0.1138 -0.9935
g Cube.001_Cube.001_Material.001
usemtl Material.001
s off
f 13/15/7 11/16/7 9/17/7
f 11/16/8 16/18/8 12/19/8
f 15/20/9 14/21/9 16/22/9
f 10/23/10 16/24/10 14/25/10
f 9/17/11 12/19/11 10/23/11
f 13/26/12 10/23/12 14/21/12
f 13/15/7 15/27/7 11/16/7
f 11/16/8 15/28/8 16/18/8
f 15/20/9 13/26/9 14/21/9
f 10/23/10 12/19/10 16/24/10
f 9/17/11 11/16/11 12/19/11
f 13/26/12 9/17/12 10/23/12
